<svg width="184" height="151" viewBox="0 0 184 151" fill="none" xmlns="http://www.w3.org/2000/svg">
<path d="M93.6245 14.8804C95.4822 17.4839 96.9645 20.3339 98.0285 23.3472C99.3536 23.5192 100.669 23.7607 101.968 24.0707L102.641 24.2247L102.795 24.2716C103.069 24.3386 103.345 24.4123 103.622 24.4927L104.409 24.7204L105.081 24.9348L105.754 25.1692L106.426 25.4036C106.635 25.4773 106.85 25.5577 107.058 25.6448C108.299 26.1228 109.513 26.6661 110.696 27.2725C110.978 27.4132 111.254 27.5605 111.529 27.7079C112 27.9625 112.464 28.2304 112.921 28.4983L113.499 28.8534L113.775 29.0208L114.387 29.4227C114.582 29.5433 114.777 29.6773 114.965 29.8112C117.218 31.3468 119.302 33.1137 121.184 35.0829C121.406 35.304 121.615 35.5317 121.857 35.7528C122.099 35.9738 122.2 36.1346 122.368 36.3221C122.637 36.637 122.906 36.9518 123.168 37.2733C123.329 37.4609 123.484 37.6484 123.632 37.8494C123.78 38.0503 124.049 38.3719 124.244 38.6398C124.439 38.9077 124.62 39.1422 124.795 39.3967C124.97 39.6513 125.165 39.9058 125.333 40.167C125.689 40.6828 126.005 41.2053 126.348 41.7412C126.516 42.0091 126.677 42.2771 126.832 42.5517C126.987 42.8263 127.141 43.0943 127.289 43.3689C127.612 43.9651 127.962 44.5679 128.217 45.1775C128.338 45.4119 128.446 45.6598 128.553 45.9009C128.661 46.1421 128.775 46.3899 128.876 46.6311C128.977 46.8722 129.064 47.0598 129.152 47.3009L129.394 47.9038C129.589 48.4128 129.784 48.9286 129.959 49.4511C130.059 49.7525 130.16 50.054 130.254 50.3621C130.254 50.3621 130.254 50.3621 130.254 50.4023C130.349 50.6903 130.429 50.9851 130.517 51.2798C130.752 52.1171 130.967 52.9678 131.149 53.8252C131.196 54.0395 131.243 54.2606 131.283 54.495C131.323 54.7295 131.33 54.7429 131.357 54.8702C131.384 54.9974 131.418 55.2051 131.444 55.3725C131.471 55.54 131.525 55.8481 131.559 56.0893C131.592 56.3304 131.633 56.5716 131.666 56.8194L131.707 57.1409L131.767 57.6835C131.767 57.8577 131.808 58.0318 131.814 58.1993C131.848 58.4672 131.868 58.7285 131.888 58.9897C131.908 59.2509 131.935 59.6127 131.949 59.9342C131.962 60.2557 131.949 60.604 131.949 60.9256C131.949 61.2471 131.949 61.5954 131.949 61.9303C131.935 72.2423 127.816 82.128 120.497 89.4197C113.178 96.7114 103.256 100.814 92.9051 100.828H91.8966C91.5604 100.828 91.2242 100.828 90.8948 100.788C90.5653 100.748 90.2224 100.755 89.9199 100.728H89.8728L88.9584 100.641L88.1785 100.56L87.6877 100.493C87.4591 100.467 87.2349 100.433 87.0153 100.393H86.9548L86.2824 100.279L85.6975 100.179L84.8503 100.011C83.3366 99.6923 81.8435 99.283 80.3792 98.7852L79.5186 98.4838L78.6916 98.169C78.315 98.0216 77.9452 97.8675 77.5755 97.7068L76.9031 97.4053L76.1501 97.0503C75.8341 96.903 75.5181 96.7489 75.1953 96.5814L74.4221 96.1795L73.5413 95.6838C73.2657 95.5298 72.9967 95.369 72.7278 95.2016C72.2302 94.9068 71.7461 94.592 71.2688 94.2705L71.1612 94.1968C70.899 94.0226 70.6435 93.8485 70.3947 93.6676C70.1459 93.4868 69.8837 93.3059 69.635 93.1116C69.3862 92.9174 69.1307 92.7432 68.8886 92.5423C68.6466 92.3413 68.4852 92.2341 68.2902 92.0667C67.9742 91.8121 67.6582 91.5509 67.3557 91.2763C67.1473 91.1021 66.9455 90.9212 66.7438 90.7404C66.5152 90.5327 66.2866 90.3251 66.0715 90.104C65.8563 89.883 65.6143 89.6753 65.3991 89.4342C64.9621 89.0055 64.5385 88.5634 64.1284 88.0945C63.9132 87.8533 63.6913 87.6122 63.456 87.3644C63.0459 86.8955 62.6559 86.4199 62.2727 85.9376C62.0441 85.6429 61.8088 85.3481 61.6003 85.04L61.2104 84.5041C61.17 84.4438 61.1229 84.3903 61.0826 84.3233C60.9212 84.1022 60.7599 83.8812 60.612 83.6534C60.4641 83.4257 60.3161 83.2113 60.1749 82.9836C60.0337 82.7558 59.7648 82.3539 59.5631 82.0257C59.2471 81.5099 58.9445 80.9807 58.6554 80.4449C58.0906 79.4133 57.5729 78.3527 57.1023 77.2631C57.0014 77.0152 56.8871 76.7607 56.7863 76.5062C56.7863 76.5062 56.7863 76.5062 56.7863 76.4727C56.7123 76.2784 56.6316 76.0909 56.5577 75.9033L56.356 75.3741C56.2887 75.1933 56.2215 75.0057 56.161 74.8182C56.1005 74.6306 55.9727 74.289 55.8853 74.021C55.7979 73.7531 55.7172 73.4852 55.6298 73.2172C55.626 73.1883 55.626 73.159 55.6298 73.1301C55.5491 72.8756 55.4685 72.6077 55.4012 72.3397C55.334 72.0718 55.2399 71.7771 55.1659 71.489C54.9507 70.6316 54.7558 69.7675 54.6011 68.89C54.5473 68.5953 54.5003 68.3073 54.4532 68.0058C54.4061 67.7044 54.3591 67.4164 54.3187 67.1216C51.2901 66.0701 48.4248 64.6 45.8067 62.7542C45.9726 71.9939 48.8667 80.9802 54.1278 88.5911C59.3888 96.2021 66.7836 102.1 75.3889 105.55C83.9942 108.999 93.4288 109.847 102.515 107.987C111.601 106.127 119.935 101.642 126.478 95.0911C133.021 88.5406 137.482 80.2151 139.304 71.1541C141.127 62.093 140.23 52.6979 136.725 44.1417C133.221 35.5856 127.264 28.2474 119.599 23.0434C111.934 17.8395 102.9 15.0003 93.6245 14.8804ZM54.0632 58.2596C54.0632 57.9715 54.117 57.6835 54.1506 57.3955C54.1843 57.1074 54.2246 56.8194 54.2649 56.5381C54.3053 56.2567 54.3456 55.9687 54.3927 55.6874C54.4398 55.406 54.4868 55.1247 54.5339 54.8434C54.749 53.718 55.0045 52.6128 55.3138 51.5276C55.3811 51.2597 55.4617 50.9851 55.5491 50.7171C55.6097 50.5095 55.6769 50.3018 55.7441 50.0875C55.7671 49.9963 55.7963 49.9068 55.8315 49.8195C55.9055 49.5851 55.9862 49.3506 56.0668 49.1162C56.1475 48.8817 56.208 48.7076 56.2887 48.5066L56.4366 48.1248C56.6114 47.6782 56.793 47.2317 56.9812 46.7851C57.2031 46.2626 57.4317 45.7402 57.6536 45.2378C57.7679 44.9899 57.8889 44.7488 58.0099 44.5143C58.131 44.2799 58.1646 44.2062 58.2453 44.0588L58.5277 43.5163C58.5613 43.456 58.5949 43.389 58.6352 43.3287C58.763 43.0876 58.8974 42.8531 59.0386 42.612L59.4152 41.9421L59.7514 41.3929L60.0741 40.8905C60.5246 40.2206 60.9952 39.5173 61.4928 38.8809C61.6541 38.6532 61.8222 38.4388 61.9903 38.2111C62.1584 37.9833 62.2525 37.8762 62.387 37.7154C62.7702 37.2264 63.1804 36.7441 63.5972 36.2752C63.7653 36.0743 63.9468 35.8867 64.1217 35.6925C64.4915 35.2839 64.868 34.8887 65.2646 34.5001L65.742 34.0313C65.9908 33.7901 66.2463 33.549 66.5018 33.3212C66.7573 33.0935 66.8716 32.9796 67.0666 32.8121C67.4095 32.504 67.7389 32.2093 68.1087 31.9212L68.6533 31.4858C69.44 30.8629 70.2468 30.2667 71.0872 29.7041C71.3226 29.5433 71.5579 29.3892 71.8067 29.2352L72.3849 28.8667L72.8219 28.5988C73.0438 28.4648 73.2589 28.3376 73.4943 28.217C73.7296 28.0964 74.0389 27.9089 74.3145 27.7548C74.5902 27.6007 74.8726 27.4534 75.1483 27.3194C75.4239 27.1854 75.713 27.0314 75.9954 26.8974H76.0425C76.5467 26.6563 77.0578 26.4285 77.5687 26.2276C77.952 26.0668 78.3352 25.906 78.7252 25.7587C78.9807 25.6515 79.2429 25.5577 79.4984 25.4706C79.7539 25.3836 79.9556 25.2965 80.1707 25.2228L80.5271 25.0955C80.7759 25.0151 81.0313 24.9281 81.2936 24.8544L82.2147 24.5797L83.1425 24.3252L83.9695 24.1242L84.5881 23.9903L84.8705 23.9233L85.3479 23.8295L86.1816 23.6754L86.78 23.5817C86.9951 23.5415 87.2036 23.5147 87.4187 23.4879C87.9633 23.4075 88.5214 23.3405 89.0727 23.2869C87.7 20.5122 85.8448 18.0017 83.593 15.8717C74.444 17.7085 66.0454 22.2026 59.4562 28.7875C52.867 35.3725 48.3819 43.7535 46.5665 52.874C48.7287 55.0937 51.2663 56.9168 54.0632 58.2596Z" fill="url(#paint0_linear)"/>
<path d="M99.3866 28.4177C97.2574 28.0086 95.0938 27.8022 92.9253 27.8015C92.253 27.8015 91.5806 27.8015 90.9082 27.8685C92.1255 32.3068 92.1445 36.9867 90.9634 41.4347C89.7824 45.8827 87.4431 49.9411 84.1823 53.1993C80.9215 56.4574 76.8548 58.7998 72.3936 59.9895C67.9324 61.1791 63.2349 61.1738 58.7764 59.9742C58.7428 60.644 58.7227 61.2536 58.7227 61.91C58.7305 64.106 58.9557 66.2958 59.395 68.4477C64.8876 69.4529 70.5432 69.1118 75.8739 67.4538C81.2046 65.7957 86.0504 62.8705 89.9933 58.9305C93.9362 54.9904 96.8577 50.1539 98.5059 44.8381C100.154 39.5223 100.479 33.8868 99.4538 28.4177H99.3866ZM65.5538 0.438297C58.7797 0.443005 52.1578 2.4395 46.5178 6.17759C40.8778 9.91567 36.4707 15.229 33.8488 21.4518C31.2268 27.6745 30.5068 34.5298 31.7788 41.1586C33.0508 47.7873 36.2584 53.8945 40.9994 58.7148C41.2198 55.0158 41.8374 51.3509 42.8416 47.783C39.9392 42.8048 38.7686 37.0108 39.5119 31.3016C40.2551 25.5923 42.8705 20.2875 46.9516 16.2117C51.0328 12.1359 56.351 9.51725 62.0798 8.76286C67.8086 8.00847 73.6272 9.16054 78.6311 12.04C82.209 11.0301 85.8854 10.4058 89.5971 10.1779C83.1732 3.91817 74.5396 0.420842 65.5538 0.438297Z" fill="url(#paint1_linear)"/>
<path d="M21.1301 146.554L21.1021 133.562L14.6621 144.314H13.0381L6.59814 133.73V146.554H3.12614V126.954H6.12214L13.9061 139.946L21.5501 126.954H24.5461L24.5741 146.554H21.1301ZM44.5683 143.502V146.554H29.8683V126.954H44.1763V130.006H33.5083V135.102H42.9723V138.098H33.5083V143.502H44.5683ZM54.7021 146.834C53.1901 146.834 51.7248 146.619 50.3061 146.19C48.9061 145.761 47.7955 145.191 46.9741 144.482L48.2341 141.654C49.0368 142.289 50.0168 142.811 51.1741 143.222C52.3501 143.614 53.5261 143.81 54.7021 143.81C56.1581 143.81 57.2408 143.577 57.9501 143.11C58.6781 142.643 59.0421 142.027 59.0421 141.262C59.0421 140.702 58.8368 140.245 58.4261 139.89C58.0341 139.517 57.5301 139.227 56.9141 139.022C56.2981 138.817 55.4581 138.583 54.3941 138.322C52.9008 137.967 51.6875 137.613 50.7541 137.258C49.8395 136.903 49.0461 136.353 48.3741 135.606C47.7208 134.841 47.3941 133.814 47.3941 132.526C47.3941 131.443 47.6835 130.463 48.2621 129.586C48.8595 128.69 49.7461 127.981 50.9221 127.458C52.1168 126.935 53.5728 126.674 55.2901 126.674C56.4848 126.674 57.6608 126.823 58.8181 127.122C59.9755 127.421 60.9741 127.85 61.8141 128.41L60.6661 131.238C59.8075 130.734 58.9115 130.351 57.9781 130.09C57.0448 129.829 56.1395 129.698 55.2621 129.698C53.8248 129.698 52.7515 129.941 52.0421 130.426C51.3515 130.911 51.0061 131.555 51.0061 132.358C51.0061 132.918 51.2021 133.375 51.5941 133.73C52.0048 134.085 52.5181 134.365 53.1341 134.57C53.7501 134.775 54.5901 135.009 55.6541 135.27C57.1101 135.606 58.3048 135.961 59.2381 136.334C60.1715 136.689 60.9648 137.239 61.6181 137.986C62.2901 138.733 62.6261 139.741 62.6261 141.01C62.6261 142.093 62.3275 143.073 61.7301 143.95C61.1515 144.827 60.2648 145.527 59.0701 146.05C57.8755 146.573 56.4195 146.834 54.7021 146.834ZM72.3115 146.834C70.7995 146.834 69.3342 146.619 67.9155 146.19C66.5155 145.761 65.4048 145.191 64.5835 144.482L65.8435 141.654C66.6462 142.289 67.6262 142.811 68.7835 143.222C69.9595 143.614 71.1355 143.81 72.3115 143.81C73.7675 143.81 74.8502 143.577 75.5595 143.11C76.2875 142.643 76.6515 142.027 76.6515 141.262C76.6515 140.702 76.4462 140.245 76.0355 139.89C75.6435 139.517 75.1395 139.227 74.5235 139.022C73.9075 138.817 73.0675 138.583 72.0035 138.322C70.5102 137.967 69.2968 137.613 68.3635 137.258C67.4488 136.903 66.6555 136.353 65.9835 135.606C65.3302 134.841 65.0035 133.814 65.0035 132.526C65.0035 131.443 65.2928 130.463 65.8715 129.586C66.4688 128.69 67.3555 127.981 68.5315 127.458C69.7262 126.935 71.1822 126.674 72.8995 126.674C74.0942 126.674 75.2702 126.823 76.4275 127.122C77.5849 127.421 78.5835 127.85 79.4235 128.41L78.2755 131.238C77.4168 130.734 76.5208 130.351 75.5875 130.09C74.6542 129.829 73.7488 129.698 72.8715 129.698C71.4342 129.698 70.3608 129.941 69.6515 130.426C68.9608 130.911 68.6155 131.555 68.6155 132.358C68.6155 132.918 68.8115 133.375 69.2035 133.73C69.6142 134.085 70.1275 134.365 70.7435 134.57C71.3595 134.775 72.1995 135.009 73.2635 135.27C74.7195 135.606 75.9142 135.961 76.8475 136.334C77.7808 136.689 78.5742 137.239 79.2275 137.986C79.8995 138.733 80.2355 139.741 80.2355 141.01C80.2355 142.093 79.9369 143.073 79.3395 143.95C78.7608 144.827 77.8742 145.527 76.6795 146.05C75.4848 146.573 74.0288 146.834 72.3115 146.834ZM98.5449 143.502V146.554H83.8449V126.954H98.1529V130.006H87.4849V135.102H96.9489V138.098H87.4849V143.502H98.5449ZM120.019 126.954V146.554H117.023L106.215 133.282V146.554H102.603V126.954H105.599L116.407 140.226V126.954H120.019ZM138.655 136.53H142.099V144.342C141.091 145.145 139.915 145.761 138.571 146.19C137.227 146.619 135.845 146.834 134.427 146.834C132.429 146.834 130.628 146.405 129.023 145.546C127.417 144.669 126.157 143.465 125.243 141.934C124.328 140.403 123.871 138.677 123.871 136.754C123.871 134.831 124.328 133.105 125.243 131.574C126.157 130.043 127.417 128.849 129.023 127.99C130.647 127.113 132.467 126.674 134.483 126.674C136.125 126.674 137.619 126.945 138.963 127.486C140.307 128.027 141.436 128.821 142.351 129.866L140.055 132.106C138.561 130.613 136.76 129.866 134.651 129.866C133.269 129.866 132.037 130.155 130.955 130.734C129.891 131.313 129.051 132.125 128.435 133.17C127.837 134.215 127.539 135.41 127.539 136.754C127.539 138.061 127.837 139.237 128.435 140.282C129.051 141.327 129.891 142.149 130.955 142.746C132.037 143.343 133.26 143.642 134.623 143.642C136.153 143.642 137.497 143.306 138.655 142.634V136.53ZM161.6 143.502V146.554H146.9V126.954H161.208V130.006H150.54V135.102H160.004V138.098H150.54V143.502H161.6ZM178.481 146.554L174.477 140.814C174.309 140.833 174.057 140.842 173.721 140.842H169.297V146.554H165.657V126.954H173.721C175.42 126.954 176.895 127.234 178.145 127.794C179.415 128.354 180.385 129.157 181.057 130.202C181.729 131.247 182.065 132.489 182.065 133.926C182.065 135.401 181.701 136.67 180.973 137.734C180.264 138.798 179.237 139.591 177.893 140.114L182.401 146.554H178.481ZM178.397 133.926C178.397 132.675 177.987 131.714 177.165 131.042C176.344 130.37 175.14 130.034 173.553 130.034H169.297V137.846H173.553C175.14 137.846 176.344 137.51 177.165 136.838C177.987 136.147 178.397 135.177 178.397 133.926Z" fill="url(#paint2_linear)"/>
<defs>
<linearGradient id="paint0_linear" x1="93.0157" y1="14.8804" x2="93.0157" y2="108.95" gradientUnits="userSpaceOnUse">
<stop stop-color="#358DF4"/>
<stop offset="1" stop-color="#0779FE"/>
</linearGradient>
<linearGradient id="paint1_linear" x1="65.603" y1="0.438232" x2="65.603" y2="69.0122" gradientUnits="userSpaceOnUse">
<stop stop-color="#358DF4"/>
<stop offset="1" stop-color="#0779FE"/>
</linearGradient>
<linearGradient id="paint2_linear" x1="92" y1="119.554" x2="92" y2="150.438" gradientUnits="userSpaceOnUse">
<stop stop-color="#358DF4"/>
<stop offset="1" stop-color="#0779FE"/>
</linearGradient>
</defs>
</svg>
