<svg width="25" height="25" viewBox="0 0 25 25" fill="none" xmlns="http://www.w3.org/2000/svg">
<path d="M21.3542 25H3.90625C1.75208 25 0 23.2479 0 21.0938V2.86458C0 1.28437 1.28437 0 2.86458 0H15.8854C17.4656 0 18.75 1.28437 18.75 2.86458V3.125H22.1354C23.7156 3.125 25 4.40937 25 5.98958V21.0938C25 23.0896 23.4958 24.7396 21.5615 24.9719C21.4958 24.9906 21.426 25 21.3542 25ZM18.75 4.6875V21.0938C18.75 22.3865 19.801 23.4375 21.0938 23.4375C22.3865 23.4375 23.4375 22.3865 23.4375 21.0938V5.98958C23.4375 5.27187 22.8531 4.6875 22.1354 4.6875H18.75ZM2.86458 1.5625C2.14687 1.5625 1.5625 2.14687 1.5625 2.86458V21.0938C1.5625 22.3865 2.61354 23.4375 3.90625 23.4375H17.9708C17.4792 22.7844 17.1875 21.9719 17.1875 21.0938V2.86458C17.1875 2.14687 16.6031 1.5625 15.8854 1.5625H2.86458Z" fill="#004CA4"/>
<path d="M8.59375 9.375H3.90625C3.475 9.375 3.125 9.025 3.125 8.59375V3.90625C3.125 3.475 3.475 3.125 3.90625 3.125H8.59375C9.025 3.125 9.375 3.475 9.375 3.90625V8.59375C9.375 9.025 9.025 9.375 8.59375 9.375ZM4.6875 7.8125H7.8125V4.6875H4.6875V7.8125Z" fill="#004CA4"/>
<path d="M14.8437 5.72925H12.2395C11.8083 5.72925 11.4583 5.37925 11.4583 4.948C11.4583 4.51675 11.8083 4.16675 12.2395 4.16675H14.8437C15.2749 4.16675 15.6249 4.51675 15.6249 4.948C15.6249 5.37925 15.2749 5.72925 14.8437 5.72925Z" fill="#004CA4"/>
<path d="M14.8437 8.85425H12.2395C11.8083 8.85425 11.4583 8.50425 11.4583 8.073C11.4583 7.64175 11.8083 7.29175 12.2395 7.29175H14.8437C15.2749 7.29175 15.6249 7.64175 15.6249 8.073C15.6249 8.50425 15.2749 8.85425 14.8437 8.85425Z" fill="#004CA4"/>
<path d="M14.8438 13.0208H3.90625C3.475 13.0208 3.125 12.6708 3.125 12.2395C3.125 11.8083 3.475 11.4583 3.90625 11.4583H14.8438C15.275 11.4583 15.625 11.8083 15.625 12.2395C15.625 12.6708 15.275 13.0208 14.8438 13.0208Z" fill="#004CA4"/>
<path d="M14.8438 16.927H3.90625C3.475 16.927 3.125 16.577 3.125 16.1458C3.125 15.7145 3.475 15.3645 3.90625 15.3645H14.8438C15.275 15.3645 15.625 15.7145 15.625 16.1458C15.625 16.577 15.275 16.927 14.8438 16.927Z" fill="#004CA4"/>
<path d="M14.8438 20.8333H3.90625C3.475 20.8333 3.125 20.4833 3.125 20.052C3.125 19.6208 3.475 19.2708 3.90625 19.2708H14.8438C15.275 19.2708 15.625 19.6208 15.625 20.052C15.625 20.4833 15.275 20.8333 14.8438 20.8333Z" fill="#004CA4"/>
</svg>
