<svg width="61" height="61" viewBox="0 0 61 61" fill="none" xmlns="http://www.w3.org/2000/svg">
<circle cx="30.5" cy="30.5" r="30.5" fill="#D6A9A0"/>
<path d="M39.0379 39.2857H35.913C34.6399 39.2857 33.5983 38.2441 33.5983 36.971V33.198V33.1864H25.6587V33.198V36.971C25.6587 38.2441 24.6171 39.2857 23.344 39.2857C23.344 39.2857 29.1887 47.5493 44.0956 46.01V44.3434C44.0956 41.5542 41.8271 39.2857 39.0379 39.2857Z" fill="#EDC9AE"/>
<path d="M42.4406 46.1373C28.8995 46.9127 23.4598 39.4592 23.3325 39.2856L15.636 42.2022H15.6592C15.3467 42.8735 15.1847 43.6026 15.1731 44.3433V55.2804H44.1073V46.0099C43.5401 46.0678 42.9846 46.1141 42.4406 46.1373Z" fill="#4BD3F1"/>
<path d="M21.9552 26.5199V19.6567H19.9066V24.2862C19.9066 25.1774 19.7215 26.0685 19.3743 26.9018C18.0086 30.1309 20.1381 33.765 23.5523 34.1238C23.6797 34.1354 23.7954 34.147 23.9227 34.147H25.6472V33.1979V33.1863L21.9552 26.5199Z" fill="#3E4768"/>
<path d="M22.8118 36.103C21.6428 35.559 20.3466 35.3623 19.0735 35.5359L19.5827 33.1749C20.8558 33.0013 22.1521 33.198 23.3094 33.742C23.5641 33.8577 23.8071 33.9966 24.0386 34.1355L23.5293 36.4965C23.3094 36.346 23.0664 36.2187 22.8118 36.103Z" fill="#7C2DE0"/>
<path d="M19.0964 41.0449L15.6243 42.2023H15.6475C15.335 42.8736 15.173 43.6027 15.1614 44.3434V55.2805H18.6335V43.186C18.6335 42.4106 18.8071 41.8551 19.1196 41.1607L19.0964 41.0449Z" fill="#0055A3"/>
<path d="M34.7094 9.70349C33.0891 12.4002 30.9364 14.738 28.3786 16.5667C26.1102 18.187 23.5756 19.3906 20.8789 20.1082V25.3974C20.8789 27.7121 21.8048 29.9343 23.4483 31.5661C24.0964 32.2143 24.8371 32.7582 25.6473 33.1749C29.8948 35.3623 35.1261 33.6957 37.3135 29.4482C37.9501 28.2214 38.2741 26.8672 38.2741 25.49V20.6522C32.9502 16.7866 34.7094 9.70349 34.7094 9.70349Z" fill="#FFD8B7"/>
<path d="M33.1008 32.7582C31.7236 32.7582 30.3579 32.4341 29.1311 31.7976C28.3209 31.3809 27.5802 30.8369 26.9321 30.1888C25.2886 28.5569 24.3627 26.3348 24.3627 24.0201V18.8813C23.2401 19.379 22.0827 19.7957 20.8906 20.1082V25.3973C20.8906 27.7121 21.8165 29.9342 23.46 31.5661C24.1081 32.2142 24.8488 32.7582 25.659 33.1748C28.4829 34.6331 31.874 34.4248 34.5013 32.6309C34.0383 32.7235 33.5754 32.7582 33.1008 32.7582Z" fill="#DDBBA2"/>
<path d="M35.1028 22.5386C34.7209 22.5386 34.4084 22.2261 34.4084 21.8442C34.4084 21.4044 34.0496 21.0456 33.6098 21.0456C33.17 21.0456 32.8112 21.4044 32.8112 21.8442C32.8112 22.2261 32.4987 22.5386 32.1168 22.5386C31.7349 22.5386 31.4224 22.2261 31.4224 21.8442C31.4224 20.6405 32.4061 19.6567 33.6098 19.6567C34.8134 19.6567 35.7972 20.6405 35.7972 21.8442C35.7972 22.2261 35.4847 22.5386 35.1028 22.5386Z" fill="#BA9A85"/>
<path d="M27.1401 22.5386C26.7582 22.5386 26.4457 22.2261 26.4457 21.8442C26.4457 21.4044 26.0869 21.0456 25.6471 21.0456C25.2073 21.0456 24.8486 21.4044 24.8486 21.8442C24.8486 22.2261 24.5361 22.5386 24.1541 22.5386C23.7722 22.5386 23.4597 22.2261 23.4597 21.8442C23.4597 20.6405 24.4435 19.6567 25.6471 19.6567C26.8508 19.6567 27.8346 20.6405 27.8346 21.8442C27.8346 22.2261 27.5221 22.5386 27.1401 22.5386Z" fill="#BA9A85"/>
<path d="M29.6284 29.1586C28.5058 29.1586 27.441 28.7188 26.6424 27.9318C26.3646 27.6656 26.3646 27.2258 26.6308 26.9481C26.897 26.6703 27.3368 26.6703 27.6146 26.9365L27.6262 26.9481C28.7257 28.0476 30.5196 28.0476 31.6191 26.9481C31.8853 26.6703 32.3251 26.6703 32.6029 26.9365C32.8806 27.2027 32.8806 27.6425 32.6144 27.9203L32.6029 27.9318C31.8158 28.7188 30.7511 29.1586 29.6284 29.1586Z" fill="#BA9A85"/>
<path d="M38.2972 24.5641H38.2857V25.49C38.2857 27.8278 37.3482 30.0616 35.67 31.6934L35.6932 31.7166C38.5866 31.1148 40.6467 28.557 40.6467 25.6057V15.9301C40.6467 10.4789 36.2834 5.98834 30.8207 5.93047C28.5638 5.89575 26.3532 6.50916 24.4204 7.6781C20.7863 9.88867 18.6683 13.8816 18.7146 18.0828C18.7146 18.5689 18.7493 19.0434 18.8188 19.518L18.9577 20.5712L19.8604 20.3744C20.2076 20.2934 20.5548 20.2124 20.8905 20.1198C23.5871 19.4022 26.1218 18.1986 28.3902 16.5782C30.948 14.7496 33.1007 12.4117 34.721 9.71506C34.721 9.71506 32.9618 16.7981 38.2972 20.6637" fill="#3E4768"/>
<path d="M16.9901 19.2169C16.6081 19.2169 16.2957 18.9044 16.2957 18.5224C16.2957 18.1984 16.5271 17.909 16.8396 17.8396C22.0825 16.6938 26.7467 13.6962 29.9641 9.40239C30.1956 9.0899 30.6238 9.03203 30.9363 9.2635C31.2488 9.49498 31.3067 9.9232 31.0752 10.2357C27.6494 14.7957 22.7075 17.9785 17.1405 19.1937C17.0942 19.2169 17.0364 19.2169 16.9901 19.2169Z" fill="#30384F"/>
<path d="M20.8904 21.8443V24.5988C20.6937 24.703 20.4854 24.7724 20.2655 24.7956C19.328 24.8997 18.4947 24.2285 18.3789 23.291C18.3095 22.666 18.5873 22.0642 19.0965 21.7054C19.6636 21.335 20.4043 21.3929 20.8904 21.8443Z" fill="#EDC9AE"/>
<path d="M40.6583 22.284C40.7624 22.4691 40.8203 22.6659 40.855 22.8626C40.9129 23.2214 40.8434 23.5918 40.6583 23.9159C40.2069 24.7376 39.1768 25.0385 38.3435 24.5871C38.3319 24.5755 38.3204 24.5755 38.2972 24.564H38.2856V21.8789H38.2972C38.656 21.5085 39.1884 21.3696 39.6861 21.497C39.8481 21.5317 39.987 21.6011 40.1259 21.6937C40.3458 21.8557 40.5309 22.0525 40.6583 22.284Z" fill="#EDC9AE"/>
<path d="M21.6196 54.7829C20.983 53.3131 20.983 51.6349 21.6196 50.165C21.77 49.8178 21.608 49.4012 21.2492 49.2507C20.902 49.1003 20.4969 49.2623 20.3465 49.6095C19.571 51.415 19.5594 53.4635 20.3233 55.2806H21.6427C21.689 55.1186 21.689 54.945 21.6196 54.7829Z" fill="#3759AF"/>
<path d="M38.9107 49.6094C38.7602 49.2622 38.3435 49.1001 37.9963 49.2506C37.6491 49.401 37.4871 49.8061 37.6376 50.1533C38.2741 51.6232 38.2741 53.3014 37.6376 54.7712C37.5681 54.9333 37.5681 55.1069 37.6144 55.2689H38.9338C39.6977 53.4634 39.6861 51.4264 38.9107 49.6094Z" fill="#3759AF"/>
<path d="M25.5199 41.5541C27.5453 42.9545 28.3671 45.547 27.5106 47.8617L27.175 48.7645L24.2468 53.8337C24.7098 51.3338 22.6265 49.5631 21.2377 48.695C20.8673 48.4636 20.4854 48.2437 20.0803 48.0701C16.0643 45.8595 15.2657 43.4174 15.7633 41.2647C16.4462 38.2209 19.71 35.7788 20.1382 35.4779C21.0641 35.5011 21.9784 35.7094 22.8117 36.1029C22.8117 36.2996 22.8001 36.4964 22.8001 36.6816C22.8001 37.3181 22.8233 37.9547 22.8811 38.5912C23.101 39.4824 23.6334 40.2578 24.3857 40.7786L25.5199 41.5541Z" fill="#3E4768"/>
<path d="M26.4111 50.0723C25.9019 49.5515 25.3232 49.0885 24.7098 48.695C24.3395 48.4636 23.9575 48.2437 23.5525 48.0701C19.548 45.8595 18.7378 43.4174 19.2239 41.2647C19.7331 39.0079 21.6775 37.0751 22.8002 36.1029C21.9553 35.7094 21.0525 35.4895 20.1266 35.4779C19.6984 35.7904 16.4347 38.2324 15.7518 41.2647C15.2657 43.4174 16.0643 45.8711 20.0804 48.0701C20.4854 48.2552 20.8674 48.4636 21.2377 48.695C22.6266 49.5631 24.7098 51.3338 24.2469 53.8337L26.4111 50.0723Z" fill="#2E364C"/>
<path d="M21.7352 45.9637C21.6311 45.9637 21.5385 45.9406 21.4459 45.9059C19.8024 45.1536 18.7608 44.1004 18.3789 42.7926C17.8118 40.8482 18.9228 39.1006 18.9691 39.0311C19.1774 38.7071 19.6172 38.626 19.9297 38.8344C20.2422 39.0427 20.3348 39.4593 20.1381 39.7834C20.1265 39.8065 19.3279 41.0912 19.7214 42.4222C19.9876 43.3249 20.763 44.0772 22.0246 44.6559C22.3718 44.8179 22.5222 45.223 22.3718 45.5818C22.256 45.8133 22.013 45.9637 21.7352 45.9637Z" fill="#F4F8FC"/>
</svg>
