<svg width="25" height="25" viewBox="0 0 25 25" fill="none" xmlns="http://www.w3.org/2000/svg">
<path d="M24.7093 6.10527C24.5263 5.96689 24.289 5.92221 24.0681 5.98471L13.7165 8.91439C13.4013 9.00364 13.1836 9.29144 13.1836 9.61912V19.5347C12.7523 19.2846 12.2522 19.1406 11.7187 19.1406C10.1033 19.1406 8.78906 20.4548 8.78906 22.0702C8.78906 23.6857 10.1033 24.9999 11.7187 24.9999C13.3342 24.9999 14.6484 23.6857 14.6484 22.0702C14.6484 21.9942 14.6484 13.1027 14.6484 13.1027L23.5351 10.5876V16.605C23.1038 16.3549 22.6037 16.2109 22.0703 16.2109C20.4548 16.2109 19.1406 17.5251 19.1406 19.1406C19.1406 20.756 20.4548 22.0702 22.0703 22.0702C23.6857 22.0702 24.9999 20.756 24.9999 19.1406C24.9999 19.0756 24.9999 6.68944 24.9999 6.68944C25 6.45995 24.8924 6.24369 24.7093 6.10527ZM11.7188 23.5351C10.9111 23.5351 10.2539 22.878 10.2539 22.0702C10.2539 21.2625 10.9111 20.6054 11.7188 20.6054C12.5265 20.6054 13.1836 21.2625 13.1836 22.0702C13.1836 22.878 12.5265 23.5351 11.7188 23.5351ZM22.0703 20.6054C21.2626 20.6054 20.6055 19.9483 20.6055 19.1406C20.6055 18.3329 21.2626 17.6757 22.0703 17.6757C22.878 17.6757 23.5351 18.3329 23.5351 19.1406C23.5351 19.9483 22.878 20.6054 22.0703 20.6054ZM23.5351 9.06526L14.6485 11.5803V10.173L23.5351 7.65795V9.06526Z" fill="#004CA4"/>
<path d="M10.2209 5.19972C8.59587 4.00851 7.40539 2.82873 6.58147 1.59284L5.73728 0.326688C5.55823 0.0581342 5.22449 -0.061543 4.91566 0.0319624C4.60677 0.125517 4.39549 0.410232 4.39549 0.732985V12.2111C3.96419 11.9609 3.4641 11.8169 2.93065 11.8169C1.31523 11.8169 0.000976562 13.1312 0.000976562 14.7466C0.000976562 16.362 1.31523 17.6763 2.93065 17.6763C4.54608 17.6763 5.86033 16.362 5.86033 14.7466V3.09591C6.73567 4.22379 7.88615 5.3046 9.3548 6.3812C9.91837 6.79429 10.2548 7.45732 10.2548 8.15488C10.2548 9.36645 9.26915 10.3521 8.05759 10.3521C7.6531 10.3521 7.32517 10.6801 7.32517 11.0846C7.32517 11.489 7.6531 11.817 8.05759 11.817C10.0769 11.8169 11.7197 10.1741 11.7197 8.15483C11.7197 6.99238 11.1593 5.88765 10.2209 5.19972ZM2.93065 16.2114C2.12294 16.2114 1.46581 15.5543 1.46581 14.7466C1.46581 13.9389 2.12294 13.2818 2.93065 13.2818C3.73836 13.2818 4.39549 13.9389 4.39549 14.7466C4.39549 15.5543 3.73836 16.2114 2.93065 16.2114Z" fill="#004CA4"/>
</svg>
