<svg width="25" height="25" viewBox="0 0 25 25" fill="none" xmlns="http://www.w3.org/2000/svg">
<g clip-path="url(#clip0)">
<path d="M20.2678 12.2155C22.83 9.91211 23.0398 5.96777 20.7364 3.40556C18.6238 1.0556 15.0878 0.656379 12.5044 2.47623C9.68829 0.48876 5.79423 1.16054 3.80676 3.97664C1.98309 6.56067 2.38069 10.1004 4.73217 12.2155C1.8104 13.7556 -0.0131643 16.7921 7.15669e-05 20.0949V22.7734C7.15669e-05 23.2666 0.399815 23.6663 0.892941 23.6663H24.1071C24.6002 23.6663 25 23.2666 25 22.7734V20.0949C25.0131 16.7921 23.1896 13.7556 20.2678 12.2155ZM16.0714 3.1307C18.5334 3.12798 20.5316 5.12167 20.5343 7.58375C20.5363 9.33967 19.5073 10.9332 17.9062 11.6538C17.8374 11.6851 17.7687 11.7136 17.6991 11.7432C17.4787 11.832 17.2514 11.9028 17.0196 11.9548C16.975 11.9646 16.9303 11.9699 16.8848 11.9789C16.6257 12.0285 16.3628 12.0551 16.099 12.0584C15.9803 12.0584 15.8606 12.0494 15.7419 12.0387C15.6973 12.0387 15.6526 12.0387 15.6079 12.0298C15.1005 11.97 14.6068 11.8246 14.1481 11.5994C14.1312 11.5914 14.1115 11.5923 14.0946 11.5852C14.0053 11.5423 13.916 11.5048 13.8365 11.4566C13.8437 11.4476 13.8482 11.4378 13.8553 11.4289C14.2647 10.9028 14.5875 10.3148 14.8115 9.68694L14.8392 9.61192C14.941 9.31205 15.0201 9.00495 15.0758 8.69315C15.0838 8.64764 15.0901 8.60385 15.0972 8.55478C15.1489 8.23738 15.176 7.91653 15.1785 7.59494C15.1759 7.27399 15.1488 6.95371 15.0972 6.63689C15.0901 6.59049 15.0838 6.54759 15.0758 6.49851C15.0201 6.18677 14.941 5.87962 14.8392 5.57975L14.8115 5.50473C14.5875 4.87689 14.2646 4.28886 13.8553 3.76277C13.8481 3.75383 13.8437 3.74405 13.8365 3.7351C14.5149 3.33938 15.286 3.13075 16.0714 3.1307ZM4.46431 7.595C4.45798 5.13585 6.44634 3.13718 8.90549 3.13085C10.0582 3.12787 11.1672 3.57208 11.9991 4.37C12.0509 4.42002 12.1018 4.46998 12.1518 4.52177C12.3051 4.68243 12.4465 4.85403 12.575 5.03514C12.6143 5.09049 12.65 5.14945 12.6866 5.20658C12.8114 5.39863 12.9209 5.60015 13.0142 5.80926C13.0366 5.86016 13.0535 5.91195 13.0732 5.9628C13.1673 6.19409 13.2413 6.43307 13.2946 6.67707C13.3009 6.70385 13.3027 6.73064 13.308 6.75831C13.4211 7.3127 13.4211 7.88425 13.308 8.43864C13.3027 8.46631 13.3008 8.4931 13.2946 8.51988C13.2414 8.76388 13.1673 9.00286 13.0732 9.23415C13.0535 9.28505 13.0365 9.33684 13.0142 9.3877C12.9208 9.59649 12.8113 9.79769 12.6866 9.98948C12.65 10.0466 12.6143 10.1056 12.575 10.1609C12.4466 10.3421 12.3051 10.5136 12.1518 10.6743C12.1018 10.7261 12.0509 10.7761 11.9991 10.8261C11.6376 11.1706 11.2208 11.4519 10.7661 11.6582C10.6938 11.6912 10.6205 11.7216 10.5465 11.7475C10.3312 11.8329 10.1098 11.9016 9.884 11.9528C9.82776 11.9653 9.76969 11.9725 9.71256 11.9823C9.47013 12.0274 9.2243 12.0522 8.97774 12.0564H8.87954C8.63298 12.0522 8.38715 12.0274 8.14472 11.9823C8.08759 11.9725 8.02952 11.9653 7.97328 11.9528C7.74748 11.9016 7.52598 11.8329 7.3108 11.7475C7.23667 11.718 7.16348 11.6877 7.09118 11.6582C5.49378 10.937 4.46636 9.34762 4.46431 7.595ZM16.0714 21.8806H1.78576V20.0949C1.77268 17.0694 3.67895 14.368 6.53392 13.3664C8.06656 14.0045 9.79051 14.0045 11.3232 13.3664C11.6213 13.4753 11.9118 13.6039 12.1928 13.7512C12.3786 13.8468 12.55 13.9557 12.7286 14.0655C12.8446 14.1378 12.9625 14.2084 13.0741 14.2878C13.2464 14.4101 13.4089 14.5432 13.5687 14.6798C13.6714 14.7691 13.7732 14.8583 13.8696 14.9476C14.0169 15.0869 14.1553 15.2342 14.2883 15.3852C14.3839 15.4941 14.4767 15.6048 14.5651 15.7191C14.6821 15.8691 14.7937 16.0227 14.8973 16.1807C14.9866 16.3146 15.0661 16.4539 15.1446 16.5932C15.2339 16.7467 15.316 16.9003 15.391 17.0601C15.466 17.22 15.5321 17.395 15.5963 17.5655C15.6526 17.7137 15.7124 17.861 15.7588 18.0119C15.8213 18.219 15.8651 18.4333 15.9088 18.6476C15.9356 18.7744 15.9704 18.8985 15.9901 19.0271C16.043 19.3805 16.0701 19.7374 16.0713 20.0949V21.8806H16.0714ZM23.2142 21.8806H17.8571V20.0949C17.8571 19.8155 17.841 19.5386 17.816 19.2646C17.8089 19.1842 17.7964 19.1047 17.7875 19.0244C17.7633 18.8271 17.7357 18.6315 17.6982 18.4378C17.6821 18.3551 17.6652 18.272 17.6473 18.1886C17.6044 17.9898 17.5547 17.7928 17.4982 17.5976C17.4794 17.5333 17.4624 17.4681 17.4428 17.4047C17.1928 16.6055 16.8305 15.8459 16.3669 15.1485L16.3321 15.0976C16.1786 14.8696 16.0145 14.6491 15.8401 14.436L15.8339 14.428C15.6553 14.2066 15.4616 13.9914 15.258 13.7878C15.2696 13.7878 15.2821 13.7878 15.2946 13.7878C15.5466 13.8209 15.8003 13.8388 16.0545 13.8414H16.1036C16.3388 13.8393 16.5736 13.8241 16.8072 13.7959C16.8804 13.7869 16.9527 13.7735 17.0259 13.7619C17.2158 13.7328 17.4033 13.6949 17.5884 13.6485C17.6411 13.6351 17.6947 13.6226 17.7482 13.6075C17.9911 13.5414 18.2297 13.4603 18.4625 13.3646C21.3196 14.3653 23.2276 17.0678 23.2143 20.095V21.8806H23.2142Z" fill="#004CA4"/>
</g>
<defs>
<clipPath id="clip0">
<rect width="25" height="25" fill="white"/>
</clipPath>
</defs>
</svg>
